<svg width="49" height="48" viewBox="0 0 49 48" fill="none" xmlns="http://www.w3.org/2000/svg">
<g clip-path="url(#clip0_485_2020)">
<g clip-path="url(#clip1_485_2020)">
<path d="M44.5 25.6C44.125 25.6 43.3906 25.3333 42.2969 24.8C41.2031 24.2667 40.0156 23.7333 38.7344 23.2C37.4531 22.6667 36.375 22.4 35.5 22.4C34.6875 22.4 33.7812 22.675 32.7812 23.225C31.7812 23.775 30.7812 24.4417 29.7812 25.225C28.7812 26.0083 27.7422 26.7917 26.6641 27.575C25.5859 28.3583 24.375 29.025 23.0312 29.575C21.6875 30.125 20.3438 30.4 19 30.4C17.375 30.4 15.9688 29.975 14.7812 29.125C13.5938 28.275 13 27.1 13 25.6C13 24.5 13.3359 23.5417 14.0078 22.725C14.6797 21.9083 15.4922 21.2833 16.4453 20.85C17.3984 20.4167 18.5312 20.075 19.8438 19.825C21.1562 19.575 22.3281 19.4167 23.3594 19.35C24.3906 19.2833 25.4375 19.25 26.5 19.25V19.2C26.0938 19.2 25.7422 19.0417 25.4453 18.725C25.1484 18.4083 25 18.0333 25 17.6C25 17.1667 25.1484 16.7917 25.4453 16.475C25.7422 16.1583 26.0938 16 26.5 16C20.8125 16 16.5469 17.05 13.7031 19.15C13.6094 19.2167 13.2656 19.475 12.6719 19.925C12.0781 20.375 11.7031 20.65 11.5469 20.75C11.3906 20.85 11.0391 21.05 10.4922 21.35C9.94531 21.65 9.47656 21.85 9.08594 21.95C8.69531 22.05 8.17969 22.15 7.53906 22.25C6.89844 22.35 6.21875 22.4 5.5 22.4C4.09375 22.4 2.99219 21.7667 2.19531 20.5C1.39844 19.2333 1 17.7333 1 16C1 13.6667 1.6875 11.4833 3.0625 9.45C4.4375 7.41667 6.25 5.725 8.5 4.375C10.75 3.025 13.3125 1.95833 16.1875 1.175C19.0625 0.391667 22 0 25 0C29.3438 0 33.3594 0.858333 37.0469 2.575C40.7344 4.29167 43.6484 6.625 45.7891 9.575C47.9297 12.525 49 15.7333 49 19.2C49 20.7 48.5938 22.1417 47.7812 23.525C46.9688 24.9083 45.875 25.6 44.5 25.6ZM22.6562 32L28 30.4C28 29.5667 29.0156 28.5583 31.0469 27.375C33.0781 26.1917 34.5625 25.6 35.5 25.6C37.5625 25.6 39.3281 26.15 40.7969 27.25C42.2656 28.35 43 29.4 43 30.4C43 31.2333 41.9844 32.2417 39.9531 33.425C37.9219 34.6083 36.4375 35.2 35.5 35.2C34.8125 35.2 34.3906 36 34.2344 37.6C34.0781 39.2 34 42.6667 34 48H31C31 46.3333 30.0781 43.9833 28.2344 40.95C26.3906 37.9167 24.6875 36 23.125 35.2C22.75 35 22.4453 34.6417 22.2109 34.125C21.9766 33.6083 21.8984 33.125 21.9766 32.675C22.0547 32.225 22.2812 32 22.6562 32Z" fill="#5FB8A5"/>
</g>
</g>
<defs>
<clipPath id="clip0_485_2020">
<rect width="48" height="48" fill="white" transform="translate(0.599976)"/>
</clipPath>
<clipPath id="clip1_485_2020">
<rect width="48" height="48" fill="white" transform="translate(1)"/>
</clipPath>
</defs>
</svg>
