<svg width="50" height="50" viewBox="0 0 33 32" fill="none" xmlns="http://www.w3.org/2000/svg">
    <path
        d="M24.5 24C25.0304 24 25.5391 23.7893 25.9142 23.4142C26.2893 23.0391 26.5 22.5304 26.5 22V17.116C26.5 16.5856 26.2893 16.0769 25.9142 15.7018C25.5391 15.3267 25.0304 15.116 24.5 15.116H21.724C21.724 14.414 21.766 13.71 21.848 13.008C21.972 12.264 22.18 11.602 22.468 11.024C22.758 10.444 23.13 9.99 23.586 9.658C24.04 9.286 24.618 9.1 25.322 9.1V6C24.164 6 23.152 6.248 22.282 6.744C21.4196 7.23497 20.6781 7.9129 20.112 8.728C19.5438 9.62663 19.1251 10.6114 18.872 11.644C18.617 12.7835 18.4922 13.9483 18.5 15.116V22C18.5 22.5304 18.7107 23.0391 19.0858 23.4142C19.4609 23.7893 19.9696 24 20.5 24H24.5ZM12.5 24C13.0304 24 13.5391 23.7893 13.9142 23.4142C14.2893 23.0391 14.5 22.5304 14.5 22V17.116C14.5 16.5856 14.2893 16.0769 13.9142 15.7018C13.5391 15.3267 13.0304 15.116 12.5 15.116H9.724C9.724 14.414 9.766 13.71 9.848 13.008C9.972 12.264 10.18 11.602 10.468 11.024C10.758 10.444 11.13 9.99 11.586 9.658C12.04 9.286 12.618 9.1 13.322 9.1V6C12.164 6 11.152 6.248 10.282 6.744C9.41957 7.23497 8.67808 7.9129 8.112 8.728C7.54385 9.62663 7.12508 10.6114 6.872 11.644C6.61697 12.7835 6.49217 13.9483 6.5 15.116V22C6.5 22.5304 6.71071 23.0391 7.08578 23.4142C7.46085 23.7893 7.96956 24 8.5 24H12.5Z"
        fill="black" />
</svg>