<svg width="48" height="48" viewBox="0 0 48 48" fill="none" xmlns="http://www.w3.org/2000/svg">
<g clip-path="url(#clip0_357_2912)">
<path fill-rule="evenodd" clip-rule="evenodd" d="M48 1.50001C47.9999 1.27817 47.9505 1.05913 47.8555 0.858654C47.7606 0.658181 47.6223 0.481272 47.4507 0.340671C47.2791 0.200071 47.0785 0.0992803 46.8632 0.0455605C46.648 -0.00815915 46.4235 -0.0134703 46.206 0.0300098L31.5 2.97001L16.794 0.0300098C16.5999 -0.00878245 16.4001 -0.00878245 16.206 0.0300098L1.206 3.03001C0.866085 3.09795 0.560192 3.28152 0.34033 3.54951C0.120468 3.8175 0.000209346 4.15337 0 4.50001L0 46.5C0.000133958 46.7218 0.0494705 46.9409 0.144455 47.1414C0.23944 47.3418 0.377708 47.5187 0.549298 47.6593C0.720888 47.7999 0.921528 47.9007 1.13676 47.9545C1.352 48.0082 1.57647 48.0135 1.794 47.97L16.5 45.03L31.206 47.97C31.4001 48.0086 31.5999 48.0086 31.794 47.97L46.794 44.97C47.1339 44.9021 47.4398 44.7185 47.6597 44.4505C47.8795 44.1825 47.9998 43.8466 48 43.5V1.50001ZM15 42.27V3.33001L16.5 3.03001L18 3.33001V42.27L16.794 42.03C16.5999 41.9911 16.4001 41.9911 16.206 42.03L15 42.27ZM30 44.67V5.73001L31.206 5.97001C31.4001 6.0088 31.5999 6.0088 31.794 5.97001L33 5.73001V44.67L31.5 44.97L30 44.67Z" fill="#72CC7C"/>
</g>
<defs>
<clipPath id="clip0_357_2912">
<rect width="48" height="48" fill="white"/>
</clipPath>
</defs>
</svg>
