<svg width="20" height="20" viewBox="0 0 17 16" fill="none" xmlns="http://www.w3.org/2000/svg">
<path d="M0.455322 2.5C0.455322 1.96957 0.666036 1.46086 1.04111 1.08579C1.41618 0.710714 1.92489 0.5 2.45532 0.5L14.4553 0.5C14.9858 0.5 15.4945 0.710714 15.8695 1.08579C16.2446 1.46086 16.4553 1.96957 16.4553 2.5V10.5C16.4553 11.0304 16.2446 11.5391 15.8695 11.9142C15.4945 12.2893 14.9858 12.5 14.4553 12.5H4.86932C4.60413 12.5001 4.34982 12.6055 4.16232 12.793L1.30932 15.646C1.23945 15.716 1.15037 15.7638 1.05336 15.7832C0.956343 15.8026 0.855754 15.7928 0.764322 15.755C0.672889 15.7172 0.594724 15.6531 0.53972 15.5709C0.484715 15.4886 0.455343 15.3919 0.455322 15.293L0.455322 2.5ZM7.64932 5.266C7.58341 5.16762 7.50732 5.07645 7.42232 4.994C7.28868 4.85637 7.12934 4.7463 6.95332 4.67L6.94532 4.666C6.7085 4.55604 6.45043 4.49937 6.18932 4.5C5.23132 4.5 4.45532 5.246 4.45532 6.167C4.45532 7.087 5.23132 7.833 6.18932 7.833C6.53232 7.833 6.85132 7.738 7.12032 7.573C6.98332 7.962 6.73032 8.377 6.31032 8.793C6.27076 8.83161 6.23952 8.87792 6.21853 8.92906C6.19754 8.98021 6.18725 9.0351 6.18828 9.09038C6.18931 9.14565 6.20164 9.20013 6.22453 9.25045C6.24741 9.30078 6.28035 9.34589 6.32132 9.383C6.49432 9.543 6.76832 9.538 6.93532 9.373C8.26932 8.044 8.30532 6.615 7.87632 5.667C7.81331 5.52687 7.73731 5.39296 7.64932 5.267V5.266ZM11.4553 7.573C11.3193 7.962 11.0653 8.377 10.6453 8.793C10.6058 8.83168 10.5747 8.87804 10.5538 8.92922C10.5329 8.9804 10.5226 9.03532 10.5238 9.09059C10.5249 9.14587 10.5373 9.20033 10.5603 9.25062C10.5833 9.3009 10.6163 9.34596 10.6573 9.383C10.8293 9.543 11.1033 9.538 11.2703 9.373C12.6043 8.044 12.6403 6.615 12.2123 5.667C12.149 5.52685 12.0726 5.39293 11.9843 5.267C11.9185 5.16826 11.8424 5.07676 11.7573 4.994C11.6237 4.85635 11.4643 4.74627 11.2883 4.67L11.2803 4.666C11.0438 4.55618 10.7861 4.49952 10.5253 4.5C9.56832 4.5 8.79132 5.246 8.79132 6.167C8.79132 7.087 9.56832 7.833 10.5253 7.833C10.8683 7.833 11.1873 7.738 11.4563 7.573H11.4553Z" fill="white"/>
</svg>
