<svg viewBox="0 0 24 24" xmlns="http://www.w3.org/2000/svg" height="20px">
    <path
        d="m15.9588 20.04552h-11.95831v-16.04163h6.97827v4.98h4.98v1.01611h2.0517v-1.9861l-2.05166-2.05169-1.95831-1.95832-1.99-1.99h-8a1.99728 1.99728 0 0 0 -1.99 2l-.01 16a1.99735 1.99735 0 0 0 1.99 2h14.01v-2z"
        fill="#FFFFFF" />
    <path d="m21.26 18.014 1.75-6h-1.5l-1 3.43-1-3.43h-1.5l1.75 6z" fill="#FFFFFF" />
    <path
        d="m10.0105 12.01392h-3a1.003 1.003 0 0 0 -1 1v4a1.003 1.003 0 0 0 1 1h3a1.003 1.003 0 0 0 1-1v-1h-1.5v.5h-2v-3h2v.5h1.5v-1a1.003 1.003 0 0 0 -1-1z"
        fill="#FFFFFF" />
    <path
        d="m17.0105 13.52086v-1.507h-4a1 1 0 0 0 -1 1v1.757a1 1 0 0 0 1 1h2.51v.743h-3.51v1.507h4a1 1 0 0 0 1-1v-1.757a1 1 0 0 0 -1-1h-2.51v-.743z"
        fill="#FFFFFF" />
</svg>