<svg enable-background="new 0 0 30 30" viewBox="0 0 30 30" xmlns="http://www.w3.org/2000/svg" width="48" height="48">
    <path clip-rule="evenodd"
        d="m24.7 7.9c0 1.3.5 2.4 1.3 3.3-.8-.8-2-1.4-3.3-1.4s-2.4.5-3.3 1.3c.9-.8 1.4-2 1.4-3.3 0-1.2-.4-2.2-1.1-3 .8.7 1.9 1.1 3 1.1 1.3.1 2.5-.4 3.3-1.3-.8.9-1.3 2.1-1.3 3.3zm-19.2 18.9c-.2 0-.5-.1-.7-.2l-.6-.6c-.2-.3-.3-.5-.2-.8.3-.3.6-.7 1-1 5.1-5.1 9.9-9.5 14.1-12.8l.2.2c-3.3 4.2-7.7 9-12.8 14.1-.4.4-.7.7-1 1.1zm7.3-17.3c-.6 1.7-.4 3.4.3 4.9-.7-1.5-2-2.7-3.6-3.3-1.7-.6-3.4-.4-4.9.3 1.5-.7 2.8-2 3.4-3.7.5-1.5.5-3.1-.1-4.5.7 1.3 1.9 2.3 3.4 2.8 1.7.6 3.4.4 4.9-.3v.1c-1.6.8-2.9 2-3.4 3.7zm8.3 5.7c.9-.4 1.6-1.2 1.9-2.1-.3.9-.3 1.9.2 2.8.4.9 1.2 1.6 2.1 1.9-.9-.3-1.9-.3-2.8.2-.9.4-1.6 1.2-1.9 2.1.3-.9.3-1.9-.2-2.9-.4-.9-1.2-1.5-2-1.8.9.2 1.8.2 2.7-.2z"
        fill="#CA535A" fill-rule="evenodd" />
</svg>