<svg width="17" height="17" viewBox="0 0 17 17" fill="none" xmlns="http://www.w3.org/2000/svg">
<g clip-path="url(#clip0_515_569)">
<path d="M8.5 0.0170898C4.08 0.0170898 0.5 3.59709 0.5 8.01709C0.5 11.5571 2.79 14.5471 5.97 15.6071C6.37 15.6771 6.52 15.4371 6.52 15.2271C6.52 15.0371 6.51 14.4071 6.51 13.7371C4.5 14.1071 3.98 13.2471 3.82 12.7971C3.73 12.5671 3.34 11.8571 3 11.6671C2.72 11.5171 2.32 11.1471 2.99 11.1371C3.62 11.1271 4.07 11.7171 4.22 11.9571C4.94 13.1671 6.09 12.8271 6.55 12.6171C6.62 12.0971 6.83 11.7471 7.06 11.5471C5.28 11.3471 3.42 10.6571 3.42 7.59709C3.42 6.72709 3.73 6.00709 4.24 5.44709C4.16 5.24709 3.88 4.42709 4.32 3.32709C4.32 3.32709 4.99 3.11709 6.52 4.14709C7.16 3.96709 7.84 3.87709 8.52 3.87709C9.2 3.87709 9.88 3.96709 10.52 4.14709C12.05 3.10709 12.72 3.32709 12.72 3.32709C13.16 4.42709 12.88 5.24709 12.8 5.44709C13.31 6.00709 13.62 6.71709 13.62 7.59709C13.62 10.6671 11.75 11.3471 9.97 11.5471C10.26 11.7971 10.51 12.2771 10.51 13.0271C10.51 14.0971 10.5 14.9571 10.5 15.2271C10.5 15.4371 10.65 15.6871 11.05 15.6071C12.6382 15.0711 14.0183 14.0504 14.996 12.6888C15.9737 11.3273 16.4997 9.69333 16.5 8.01709C16.5 3.59709 12.92 0.0170898 8.5 0.0170898Z" fill="white"/>
</g>
<defs>
<clipPath id="clip0_515_569">
<rect width="16" height="16" fill="white" transform="translate(0.5 0.0170898)"/>
</clipPath>
</defs>
</svg>
