<svg width="12" height="13" viewBox="0 0 12 13" fill="none" xmlns="http://www.w3.org/2000/svg">
    <path
        d="M12 6.58301C12 8.17431 11.3679 9.70043 10.2426 10.8256C9.11742 11.9509 7.5913 12.583 6 12.583C4.4087 12.583 2.88258 11.9509 1.75736 10.8256C0.632141 9.70043 0 8.17431 0 6.58301C0 4.99171 0.632141 3.46559 1.75736 2.34037C2.88258 1.21515 4.4087 0.583008 6 0.583008C7.5913 0.583008 9.11742 1.21515 10.2426 2.34037C11.3679 3.46559 12 4.99171 12 6.58301ZM4.122 5.10776H4.74075C4.84425 5.10776 4.92675 5.02301 4.94025 4.92026C5.00775 4.42826 5.34525 4.06976 5.94675 4.06976C6.46125 4.06976 6.93225 4.32701 6.93225 4.94576C6.93225 5.42201 6.65175 5.64101 6.2085 5.97401C5.70375 6.34076 5.304 6.76901 5.3325 7.46426L5.33475 7.62701C5.33554 7.67621 5.35564 7.72314 5.39072 7.75766C5.4258 7.79217 5.47304 7.81151 5.52225 7.81151H6.1305C6.18023 7.81151 6.22792 7.79175 6.26308 7.75659C6.29825 7.72143 6.318 7.67374 6.318 7.62401V7.54526C6.318 7.00676 6.52275 6.85001 7.0755 6.43076C7.53225 6.08351 8.0085 5.69801 8.0085 4.88876C8.0085 3.75551 7.0515 3.20801 6.00375 3.20801C5.0535 3.20801 4.0125 3.65051 3.94125 4.92251C3.94022 4.94673 3.94416 4.9709 3.95282 4.99355C3.96149 5.01619 3.97469 5.03682 3.99162 5.05417C4.00855 5.07152 4.02885 5.08523 4.05127 5.09444C4.07369 5.10366 4.09776 5.10819 4.122 5.10776ZM5.86575 9.94001C6.32325 9.94001 6.6375 9.64451 6.6375 9.24476C6.6375 8.83076 6.3225 8.53976 5.86575 8.53976C5.42775 8.53976 5.109 8.83076 5.109 9.24476C5.109 9.64451 5.427 9.94001 5.86575 9.94001Z"
        fill="black" />
</svg>