<?xml version="1.0" standalone="no"?>
<!DOCTYPE svg PUBLIC "-//W3C//DTD SVG 20010904//EN" "http://www.w3.org/TR/2001/REC-SVG-20010904/DTD/svg10.dtd">
<svg version="1.0" xmlns="http://www.w3.org/2000/svg" width="52.000000pt" height="35.000000pt"
    viewBox="0 0 1377.000000 582.000000" preserveAspectRatio="xMidYMid meet">

    <g transform="translate(10.000000,500.000000) scale(0.10000,-0.10000)" fill="#000000" stroke="none">
        <path d="M6680 5799 c-1058 -104 -1948 -652 -2803 -1727 -187 -234 -407 -539
-592 -819 l-48 -73 -84 0 c-46 0 -105 -5 -130 -12 -59 -14 -127 -78 -142 -133
-6 -23 -11 -125 -11 -238 l0 -198 -221 -352 c-470 -747 -724 -1098 -1009
-1391 -466 -479 -917 -642 -1410 -511 -150 40 -167 42 -195 15 -33 -31 -34
-88 -2 -117 49 -46 267 -93 467 -100 187 -7 312 10 468 62 552 185 1034 692
1751 1845 74 118 138 219 143 225 4 5 8 -408 8 -918 l0 -927 -197 -2 -198 -3
-3 -207 -2 -208 4460 0 4460 0 0 210 0 210 -195 0 -195 0 0 1047 c0 575 2
1044 4 1042 2 -2 86 -137 186 -299 306 -494 471 -742 661 -997 337 -450 654
-742 969 -892 212 -101 362 -135 590 -136 185 0 293 17 327 51 30 30 30 75 -1
111 l-24 27 -98 -12 c-135 -17 -315 -15 -413 3 -416 79 -797 380 -1246 985
-154 207 -372 540 -684 1042 l-271 437 0 73 c0 157 -48 228 -176 262 -39 10
-48 20 -144 166 -728 1102 -1406 1771 -2165 2136 -331 159 -660 257 -1040 310
-141 19 -645 28 -795 13z m1045 -224 c1002 -213 1846 -891 2719 -2182 75 -111
136 -204 136 -207 0 -3 -143 -6 -318 -6 -367 0 -397 -4 -455 -69 -20 -22 -40
-57 -46 -78 -8 -26 -11 -447 -11 -1320 l0 -1283 -235 0 -235 0 0 1918 c0 1253
-4 1930 -10 1953 -16 56 -51 101 -100 129 l-45 25 -470 0 c-466 0 -470 0 -511
-22 -52 -28 -90 -72 -104 -121 -6 -25 -10 -668 -10 -1959 l0 -1923 -235 0
-235 0 -2 2573 c-2 1463 -7 2580 -12 2590 -10 21 -6 21 179 -18z m-1415 -2575
l0 -2570 -235 0 -235 0 0 1918 c0 1253 -4 1930 -10 1953 -16 56 -51 101 -100
129 l-45 25 -470 0 -470 0 -45 -25 c-24 -14 -58 -45 -75 -68 l-30 -44 -3
-1944 -2 -1944 -235 0 -235 0 0 1276 c0 886 -3 1288 -11 1318 -13 54 -56 108
-106 132 -33 17 -70 20 -301 24 l-263 5 112 165 c791 1165 1534 1823 2399
2125 109 38 312 94 343 95 16 0 17 -129 17 -2570z" />
    </g>
</svg>