<svg version="1.1" id="Layer_1" xmlns="http://www.w3.org/2000/svg" xmlns:xlink="http://www.w3.org/1999/xlink" x="0px" y="0px"
	 width="100%" viewBox="0 0 1377 582" enable-background="new 0 0 1377 582" xml:space="preserve">
<path fill="#DA2E57" opacity="1.000000" stroke="none" 
	d="
M1141.000000,583.000000 
	C843.637329,583.000000 546.274597,583.000000 248.455322,582.531372 
	C247.998749,568.141357 247.998749,554.220032 247.998749,539.804260 
	C261.337891,539.804260 274.060791,539.804260 286.998474,539.804260 
	C286.998474,520.832886 287.011780,502.364227 286.995789,483.895538 
	C286.959381,441.933960 286.908569,399.972382 286.929443,357.643127 
	C288.638031,354.071045 290.057007,350.726654 291.959290,347.684509 
	C305.984863,325.254913 320.016632,302.827881 334.262817,280.538391 
	C337.770569,275.050110 342.075867,270.071594 346.479950,264.919312 
	C362.607758,264.986542 378.286804,265.428253 393.926086,264.830780 
	C402.784912,264.492371 413.199371,275.314362 413.169464,284.079712 
	C412.885223,367.391937 413.000000,450.705536 413.000000,534.018738 
	C413.000000,535.940735 413.000000,537.862793 413.000000,539.600830 
	C428.763367,539.600830 443.819427,539.600830 458.998444,539.600830 
	C458.998444,537.537964 458.998444,535.874023 458.998444,534.210083 
	C458.998383,409.573547 458.998383,284.936981 458.998199,160.300446 
	C458.998169,159.467316 458.947205,158.631012 459.001587,157.801529 
	C459.778656,145.941742 469.368103,136.656509 480.441101,136.841873 
	C508.759644,137.315979 537.092712,137.155533 565.417236,136.917709 
	C575.723999,136.831192 585.151184,146.815475 585.135315,156.553619 
	C584.930847,282.356232 585.000000,408.159271 585.000000,533.962219 
	C585.000000,535.889648 585.000000,537.817078 585.000000,539.621094 
	C600.723083,539.621094 615.778748,539.621094 630.998596,539.621094 
	C630.998596,537.085083 630.998596,534.926025 630.998596,532.766968 
	C630.998596,366.307190 630.994385,199.847412 631.039490,33.387642 
	C631.040100,30.976765 631.655884,28.566055 632.339966,25.970608 
	C649.434814,23.495857 666.115723,20.114773 682.929688,19.212275 
	C700.946594,18.245207 719.098145,19.371983 737.171021,20.088566 
	C743.485046,20.338911 749.739685,22.087622 756.203613,23.523954 
	C756.590515,25.833080 756.974243,27.770300 756.974548,29.707575 
	C757.002075,197.675247 757.000000,365.642914 757.000000,533.610596 
	C757.000000,535.691040 757.000000,537.771423 757.000000,539.744263 
	C772.708313,539.744263 787.645813,539.744263 802.997375,539.744263 
	C802.997375,537.534729 802.997314,535.574768 802.997314,533.614868 
	C802.997314,409.638733 802.977844,285.662567 803.082031,161.686523 
	C803.085510,157.532516 803.956177,153.271286 805.096436,149.251175 
	C806.859375,143.035934 815.558167,137.012070 822.101013,137.007828 
	C851.428711,136.988815 880.756470,137.051514 910.083984,136.970886 
	C920.028809,136.943542 929.130066,146.950668 929.117249,156.195236 
	C928.942871,282.004089 929.000000,407.813324 929.000000,533.622437 
	C929.000000,535.701721 929.000000,537.781006 929.000000,539.740356 
	C944.716797,539.740356 959.654419,539.740356 974.998596,539.740356 
	C974.998596,537.700562 974.998596,535.902161 974.998596,534.103699 
	C974.998596,493.778137 974.998657,453.452545 974.998596,413.126984 
	C974.998596,371.135071 974.977051,329.143097 975.011902,287.151215 
	C975.022034,274.889008 984.375732,264.289948 997.003235,264.774902 
	C1017.631958,265.567169 1038.315918,264.918823 1059.280762,265.046570 
	C1070.581909,282.503265 1081.664795,299.737793 1092.522705,317.113068 
	C1095.722168,322.233002 1098.284790,327.750946 1101.079590,333.547180 
	C1101.019897,402.545776 1101.019897,471.083679 1101.019897,540.121033 
	C1114.597412,540.121033 1127.651978,540.121033 1141.000000,540.121033 
	C1141.000000,554.746521 1141.000000,568.873291 1141.000000,583.000000 
z"/>
<path fill="#FFFFFF" opacity="1.000000" stroke="none" 
	d="
M1.000000,550.000000 
	C1.000000,367.062317 1.000000,184.124649 1.000000,1.000000 
	C228.360153,1.000000 455.720367,1.000000 683.357117,1.397753 
	C665.021851,2.319403 646.734009,5.046573 628.508728,8.878209 
	C602.744507,14.294850 578.093750,22.758396 554.340454,33.964279 
	C535.280579,42.955982 517.360535,53.853603 500.063019,65.908653 
	C481.169098,79.076256 463.899323,94.163940 446.939331,109.614761 
	C439.623016,116.280022 432.959808,123.716125 426.425873,131.175156 
	C412.125153,147.500671 397.593384,163.664734 384.099243,180.644363 
	C370.759125,197.430191 358.437836,215.036774 345.943298,232.479385 
	C338.330994,243.106262 331.236176,254.103806 323.447388,264.962708 
	C318.325409,264.993927 313.610016,265.457153 309.015228,264.909302 
	C297.912964,263.585541 287.508270,273.223083 287.101959,285.654510 
	C286.694550,298.119080 287.115082,310.610779 287.004822,323.404053 
	C283.556274,328.673431 280.181824,333.570160 277.011353,338.595581 
	C263.486145,360.033783 250.249268,381.657959 236.454651,402.920685 
	C227.176178,417.222351 217.613297,431.391174 207.320389,444.969604 
	C195.065277,461.136566 182.417664,477.072754 168.977539,492.256897 
	C153.985245,509.194702 136.864990,523.931519 117.142387,535.316650 
	C101.583977,544.297974 84.863716,550.398804 66.966721,551.826111 
	C49.641529,553.207703 32.467335,551.403870 15.884293,545.398682 
	C8.048512,542.561157 5.808891,543.563904 1.000000,550.000000 
z"/>
<path fill="#FFFFFF" opacity="1.000000" stroke="none" 
	d="
M721.000000,1.000004 
	C939.923218,1.000000 1158.846436,1.000000 1378.000000,1.000000 
	C1378.000000,183.692444 1378.000000,366.384979 1377.664917,549.422852 
	C1374.207520,544.640137 1370.613281,542.904419 1365.538940,544.102173 
	C1354.150635,546.790283 1342.777832,547.506897 1331.016479,546.188904 
	C1316.397461,544.550598 1302.713867,540.437988 1289.567017,534.148071 
	C1272.272095,525.873596 1257.348145,514.140137 1243.716309,500.947510 
	C1233.467896,491.029419 1223.940796,480.267151 1214.918457,469.206940 
	C1204.415283,456.331268 1194.324585,443.055511 1184.932861,429.351593 
	C1170.891357,408.863098 1157.492432,387.928925 1144.062134,367.028931 
	C1135.824829,354.210205 1128.110229,341.056854 1120.027466,328.137299 
	C1113.734131,318.078247 1107.234863,308.148163 1100.901855,297.684296 
	C1100.984009,293.547760 1100.537842,289.818573 1101.082886,286.240356 
	C1102.804443,274.937286 1090.760620,263.237823 1079.984619,264.639526 
	C1074.839233,256.647949 1070.138306,248.765030 1064.780762,241.356934 
	C1047.571167,217.561111 1030.471680,193.670883 1012.628052,170.354065 
	C1001.952881,156.404556 990.419800,143.035889 978.439453,130.182480 
	C966.917175,117.820595 954.458679,106.313576 942.141602,94.717674 
	C935.870422,88.813675 929.346313,83.060814 922.338135,78.081924 
	C908.315125,68.119347 894.306335,58.010387 879.495239,49.318985 
	C864.765747,40.675434 849.350830,33.032906 833.705200,26.160864 
	C815.315735,18.083590 795.976624,12.595170 776.239990,8.603910 
	C759.622742,5.243473 742.956970,2.419047 725.960815,1.962278 
	C724.299805,1.917639 722.653259,1.333646 721.000000,1.000004 
z"/>
<path fill="#2B2929" opacity="1.000000" stroke="none" 
	d="
M1100.827026,298.160767 
	C1107.234863,308.148163 1113.734131,318.078247 1120.027466,328.137299 
	C1128.110229,341.056854 1135.824829,354.210205 1144.062134,367.028931 
	C1157.492432,387.928925 1170.891357,408.863098 1184.932861,429.351593 
	C1194.324585,443.055511 1204.415283,456.331268 1214.918457,469.206940 
	C1223.940796,480.267151 1233.467896,491.029419 1243.716309,500.947510 
	C1257.348145,514.140137 1272.272095,525.873596 1289.567017,534.148071 
	C1302.713867,540.437988 1316.397461,544.550598 1331.016479,546.188904 
	C1342.777832,547.506897 1354.150635,546.790283 1365.538940,544.102173 
	C1370.613281,542.904419 1374.207520,544.640137 1377.664917,549.884094 
	C1378.000000,551.388916 1378.000000,552.777771 1377.646240,554.696777 
	C1375.453613,557.170776 1373.932373,560.192078 1371.713379,560.846069 
	C1366.196411,562.472168 1360.392578,563.523987 1354.646729,563.877136 
	C1346.708740,564.364990 1338.682373,564.469177 1330.760864,563.862549 
	C1323.375000,563.296875 1315.966064,562.039917 1308.764404,560.280334 
	C1296.133301,557.194153 1284.236694,552.206116 1272.960693,545.570740 
	C1259.371216,537.574036 1246.390625,528.706299 1235.292236,517.575134 
	C1222.870483,505.116699 1210.954102,492.106262 1199.482788,478.764221 
	C1190.766602,468.626404 1182.722656,457.852295 1175.041504,446.897156 
	C1164.334229,431.626038 1154.046753,416.049377 1143.947144,400.366760 
	C1134.050415,384.999298 1124.685425,369.290497 1114.943726,353.821716 
	C1110.520386,346.797760 1105.751343,339.991516 1101.139282,333.086487 
	C1098.284790,327.750946 1095.722168,322.233002 1092.522705,317.113068 
	C1081.664795,299.737793 1070.581909,282.503265 1059.173828,264.725128 
	C1048.579956,249.739151 1038.201904,235.375397 1028.257935,220.717102 
	C1011.397583,195.863144 992.401184,172.691681 972.538818,150.257187 
	C962.718811,139.165573 951.922302,128.879883 941.025513,118.816643 
	C929.882141,108.525787 918.281921,98.699402 906.510498,89.126190 
	C889.118103,74.981812 870.025208,63.310307 850.122070,53.128864 
	C830.113586,42.893501 809.063904,35.006714 787.335205,29.247375 
	C777.079224,26.528973 766.470398,25.142212 756.021423,23.152081 
	C749.739685,22.087622 743.485046,20.338911 737.171021,20.088566 
	C719.098145,19.371983 700.946594,18.245207 682.929688,19.212275 
	C666.115723,20.114773 649.434814,23.495857 631.941040,25.906218 
	C630.450806,26.342342 629.743164,26.796898 628.974854,26.953939 
	C604.787109,31.897644 581.627197,40.159733 559.767944,51.308502 
	C542.792542,59.966389 526.817627,70.651543 510.704468,80.916641 
	C492.969574,92.214859 476.867920,105.721703 462.098602,120.616692 
	C445.850769,137.002762 430.192810,153.986725 414.619263,171.022324 
	C407.973022,178.292557 401.997131,186.207016 396.060333,194.087646 
	C385.218597,208.479248 374.465149,222.944107 364.002808,237.612289 
	C357.687317,246.466629 351.989746,255.761719 346.014526,264.858765 
	C342.075867,270.071594 337.770569,275.050110 334.262817,280.538391 
	C320.016632,302.827881 305.984863,325.254913 291.959290,347.684509 
	C290.057007,350.726654 288.638031,354.071045 286.606476,357.764099 
	C285.375519,359.795227 284.629181,361.399811 283.676819,362.871002 
	C269.123962,385.352448 255.069519,408.180786 239.814133,430.175903 
	C226.200089,449.804504 211.465225,468.673004 196.825974,487.567780 
	C184.970703,502.869293 171.575195,516.723022 156.576889,529.105835 
	C141.305267,541.714355 125.212067,552.724792 106.715904,560.073792 
	C91.699364,566.040222 76.209236,569.473999 60.050289,570.019897 
	C45.714367,570.504272 31.687897,568.330811 17.890221,564.847046 
	C11.704634,563.285278 4.746125,562.513062 1.000000,556.000000 
	C1.000000,554.285645 1.000000,552.571289 1.000000,550.428467 
	C5.808891,543.563904 8.048512,542.561157 15.884293,545.398682 
	C32.467335,551.403870 49.641529,553.207703 66.966721,551.826111 
	C84.863716,550.398804 101.583977,544.297974 117.142387,535.316650 
	C136.864990,523.931519 153.985245,509.194702 168.977539,492.256897 
	C182.417664,477.072754 195.065277,461.136566 207.320389,444.969604 
	C217.613297,431.391174 227.176178,417.222351 236.454651,402.920685 
	C250.249268,381.657959 263.486145,360.033783 277.011353,338.595581 
	C280.181824,333.570160 283.556274,328.673431 287.305450,323.246613 
	C297.375488,307.725983 307.015198,292.700439 316.553406,277.610718 
	C319.161713,273.484314 321.465393,269.165405 323.908875,264.934845 
	C331.236176,254.103806 338.330994,243.106262 345.943298,232.479385 
	C358.437836,215.036774 370.759125,197.430191 384.099243,180.644363 
	C397.593384,163.664734 412.125153,147.500671 426.425873,131.175156 
	C432.959808,123.716125 439.623016,116.280022 446.939331,109.614761 
	C463.899323,94.163940 481.169098,79.076256 500.063019,65.908653 
	C517.360535,53.853603 535.280579,42.955982 554.340454,33.964279 
	C578.093750,22.758396 602.744507,14.294850 628.508728,8.878209 
	C646.734009,5.046573 665.021851,2.319403 683.816833,1.397753 
	C696.020874,1.000000 708.041809,1.000000 720.531372,1.000004 
	C722.653259,1.333646 724.299805,1.917639 725.960815,1.962278 
	C742.956970,2.419047 759.622742,5.243473 776.239990,8.603910 
	C795.976624,12.595170 815.315735,18.083590 833.705200,26.160864 
	C849.350830,33.032906 864.765747,40.675434 879.495239,49.318985 
	C894.306335,58.010387 908.315125,68.119347 922.338135,78.081924 
	C929.346313,83.060814 935.870422,88.813675 942.141602,94.717674 
	C954.458679,106.313576 966.917175,117.820595 978.439453,130.182480 
	C990.419800,143.035889 1001.952881,156.404556 1012.628052,170.354065 
	C1030.471680,193.670883 1047.571167,217.561111 1064.780762,241.356934 
	C1070.138306,248.765030 1074.839233,256.647949 1079.931641,264.993622 
	C1086.957275,276.502747 1093.892090,287.331757 1100.827026,298.160767 
z"/>
<path fill="#FFFFFF" opacity="1.000000" stroke="none" 
	d="
M1101.079590,333.547180 
	C1105.751343,339.991516 1110.520386,346.797760 1114.943726,353.821716 
	C1124.685425,369.290497 1134.050415,384.999298 1143.947144,400.366760 
	C1154.046753,416.049377 1164.334229,431.626038 1175.041504,446.897156 
	C1182.722656,457.852295 1190.766602,468.626404 1199.482788,478.764221 
	C1210.954102,492.106262 1222.870483,505.116699 1235.292236,517.575134 
	C1246.390625,528.706299 1259.371216,537.574036 1272.960693,545.570740 
	C1284.236694,552.206116 1296.133301,557.194153 1308.764404,560.280334 
	C1315.966064,562.039917 1323.375000,563.296875 1330.760864,563.862549 
	C1338.682373,564.469177 1346.708740,564.364990 1354.646729,563.877136 
	C1360.392578,563.523987 1366.196411,562.472168 1371.713379,560.846069 
	C1373.932373,560.192078 1375.453613,557.170776 1377.646240,555.113464 
	C1378.000000,564.317932 1378.000000,573.635803 1378.000000,583.000000 
	C1299.312378,583.000000 1220.624878,583.000000 1141.468628,583.000000 
	C1141.000000,568.873291 1141.000000,554.746521 1141.000000,540.121033 
	C1127.651978,540.121033 1114.597412,540.121033 1101.019897,540.121033 
	C1101.019897,471.083679 1101.019897,402.545776 1101.079590,333.547180 
z"/>
<path fill="#FFFFFF" opacity="1.000000" stroke="none" 
	d="
M1.000000,556.468628 
	C4.746125,562.513062 11.704634,563.285278 17.890221,564.847046 
	C31.687897,568.330811 45.714367,570.504272 60.050289,570.019897 
	C76.209236,569.473999 91.699364,566.040222 106.715904,560.073792 
	C125.212067,552.724792 141.305267,541.714355 156.576889,529.105835 
	C171.575195,516.723022 184.970703,502.869293 196.825974,487.567780 
	C211.465225,468.673004 226.200089,449.804504 239.814133,430.175903 
	C255.069519,408.180786 269.123962,385.352448 283.676819,362.871002 
	C284.629181,361.399811 285.375519,359.795227 286.540649,358.131744 
	C286.908569,399.972382 286.959381,441.933960 286.995789,483.895538 
	C287.011780,502.364227 286.998474,520.832886 286.998474,539.804260 
	C274.060791,539.804260 261.337891,539.804260 247.998749,539.804260 
	C247.998749,554.220032 247.998749,568.141357 247.999374,582.531372 
	C165.666656,583.000000 83.333305,583.000000 1.000000,583.000000 
	C1.000000,574.242920 1.000000,565.590149 1.000000,556.468628 
z"/>
<path fill="#FFFFFF" opacity="1.000000" stroke="none" 
	d="
M756.203613,23.523960 
	C766.470398,25.142212 777.079224,26.528973 787.335205,29.247375 
	C809.063904,35.006714 830.113586,42.893501 850.122070,53.128864 
	C870.025208,63.310307 889.118103,74.981812 906.510498,89.126190 
	C918.281921,98.699402 929.882141,108.525787 941.025513,118.816643 
	C951.922302,128.879883 962.718811,139.165573 972.538818,150.257187 
	C992.401184,172.691681 1011.397583,195.863144 1028.257935,220.717102 
	C1038.201904,235.375397 1048.579956,249.739151 1058.869751,264.556793 
	C1038.315918,264.918823 1017.631958,265.567169 997.003235,264.774902 
	C984.375732,264.289948 975.022034,274.889008 975.011902,287.151215 
	C974.977051,329.143097 974.998596,371.135071 974.998596,413.126984 
	C974.998657,453.452545 974.998596,493.778137 974.998596,534.103699 
	C974.998596,535.902161 974.998596,537.700562 974.998596,539.740356 
	C959.654419,539.740356 944.716797,539.740356 929.000000,539.740356 
	C929.000000,537.781006 929.000000,535.701721 929.000000,533.622437 
	C929.000000,407.813324 928.942871,282.004089 929.117249,156.195236 
	C929.130066,146.950668 920.028809,136.943542 910.083984,136.970886 
	C880.756470,137.051514 851.428711,136.988815 822.101013,137.007828 
	C815.558167,137.012070 806.859375,143.035934 805.096436,149.251175 
	C803.956177,153.271286 803.085510,157.532516 803.082031,161.686523 
	C802.977844,285.662567 802.997314,409.638733 802.997314,533.614868 
	C802.997314,535.574768 802.997375,537.534729 802.997375,539.744263 
	C787.645813,539.744263 772.708313,539.744263 757.000000,539.744263 
	C757.000000,537.771423 757.000000,535.691040 757.000000,533.610596 
	C757.000000,365.642914 757.002075,197.675247 756.974548,29.707575 
	C756.974243,27.770300 756.590515,25.833080 756.203613,23.523960 
z"/>
<path fill="#FFFFFF" opacity="1.000000" stroke="none" 
	d="
M346.479950,264.919312 
	C351.989746,255.761719 357.687317,246.466629 364.002808,237.612289 
	C374.465149,222.944107 385.218597,208.479248 396.060333,194.087646 
	C401.997131,186.207016 407.973022,178.292557 414.619263,171.022324 
	C430.192810,153.986725 445.850769,137.002762 462.098602,120.616692 
	C476.867920,105.721703 492.969574,92.214859 510.704468,80.916641 
	C526.817627,70.651543 542.792542,59.966389 559.767944,51.308502 
	C581.627197,40.159733 604.787109,31.897644 628.974854,26.953939 
	C629.743164,26.796898 630.450806,26.342342 631.585632,26.090878 
	C631.655884,28.566055 631.040100,30.976765 631.039490,33.387642 
	C630.994385,199.847412 630.998596,366.307190 630.998596,532.766968 
	C630.998596,534.926025 630.998596,537.085083 630.998596,539.621094 
	C615.778748,539.621094 600.723083,539.621094 585.000000,539.621094 
	C585.000000,537.817078 585.000000,535.889648 585.000000,533.962219 
	C585.000000,408.159271 584.930847,282.356232 585.135315,156.553619 
	C585.151184,146.815475 575.723999,136.831192 565.417236,136.917709 
	C537.092712,137.155533 508.759644,137.315979 480.441101,136.841873 
	C469.368103,136.656509 459.778656,145.941742 459.001587,157.801529 
	C458.947205,158.631012 458.998169,159.467316 458.998199,160.300446 
	C458.998383,284.936981 458.998383,409.573547 458.998444,534.210083 
	C458.998444,535.874023 458.998444,537.537964 458.998444,539.600830 
	C443.819427,539.600830 428.763367,539.600830 413.000000,539.600830 
	C413.000000,537.862793 413.000000,535.940735 413.000000,534.018738 
	C413.000000,450.705536 412.885223,367.391937 413.169464,284.079712 
	C413.199371,275.314362 402.784912,264.492371 393.926086,264.830780 
	C378.286804,265.428253 362.607758,264.986542 346.479950,264.919312 
z"/>
<path fill="#D92E57" opacity="1.000000" stroke="none" 
	d="
M323.447388,264.962708 
	C321.465393,269.165405 319.161713,273.484314 316.553406,277.610718 
	C307.015198,292.700439 297.375488,307.725983 287.473389,322.933167 
	C287.115082,310.610779 286.694550,298.119080 287.101959,285.654510 
	C287.508270,273.223083 297.912964,263.585541 309.015228,264.909302 
	C313.610016,265.457153 318.325409,264.993927 323.447388,264.962708 
z"/>
<path fill="#D82E56" opacity="1.000000" stroke="none" 
	d="
M1100.901855,297.684326 
	C1093.892090,287.331757 1086.957275,276.502747 1080.075439,265.319641 
	C1090.760620,263.237823 1102.804443,274.937286 1101.082886,286.240356 
	C1100.537842,289.818573 1100.984009,293.547760 1100.901855,297.684326 
z"/>
</svg>