<svg width="17" height="16" viewBox="0 0 17 16" fill="none" xmlns="http://www.w3.org/2000/svg">
    <g clip-path="url(#clip0_641_5206)">
        <path
            d="M2.5 6.00019C2.49997 5.0094 2.7453 4.03403 3.21408 3.16116C3.68287 2.28828 4.36051 1.54509 5.18651 0.997926C6.01251 0.450765 6.96115 0.116669 7.94773 0.0254724C8.93432 -0.0657246 9.92813 0.0888152 10.8404 0.475293C11.7527 0.86177 12.5551 1.46816 13.176 2.2403C13.7968 3.01245 14.2168 3.92633 14.3984 4.90034C14.58 5.87434 14.5175 6.87816 14.2166 7.82215C13.9157 8.76614 13.3858 9.62093 12.674 10.3102C12.471 10.5062 12.315 10.7102 12.221 10.9292L11.459 12.6982C11.4203 12.7878 11.3563 12.8642 11.2747 12.9179C11.1931 12.9716 11.0976 13.0002 11 13.0002H6C5.90219 13.0004 5.80648 12.9718 5.72472 12.9182C5.64296 12.8645 5.57874 12.788 5.54 12.6982L4.779 10.9282C4.67004 10.6944 4.51611 10.4845 4.326 10.3102C3.74763 9.75136 3.28783 9.08167 2.9741 8.34114C2.66036 7.60061 2.49912 6.80444 2.5 6.00019ZM5.5 14.5002C5.5 14.3676 5.55268 14.2404 5.64645 14.1466C5.74022 14.0529 5.8674 14.0002 6 14.0002H11C11.1326 14.0002 11.2598 14.0529 11.3536 14.1466C11.4473 14.2404 11.5 14.3676 11.5 14.5002C11.5 14.6328 11.4473 14.76 11.3536 14.8537C11.2598 14.9475 11.1326 15.0002 11 15.0002L10.776 15.4472C10.693 15.6133 10.5654 15.753 10.4075 15.8506C10.2496 15.9483 10.0677 16.0001 9.882 16.0002H7.118C6.93234 16.0001 6.75037 15.9483 6.59248 15.8506C6.43458 15.753 6.30699 15.6133 6.224 15.4472L6 15.0002C5.8674 15.0002 5.74022 14.9475 5.64645 14.8537C5.55268 14.76 5.5 14.6328 5.5 14.5002Z"
            fill="#66BFF1" />
    </g>
    <defs>
        <clipPath id="clip0_641_5206">
            <rect width="16" height="16" fill="white" transform="translate(0.5)" />
        </clipPath>
    </defs>
</svg>