<svg width="20" height="21" viewBox="0 0 20 21" fill="none" xmlns="http://www.w3.org/2000/svg">
<g clip-path="url(#clip0_534_492)">
<path d="M0 1.51014C0 0.718887 0.6575 0.0776367 1.46875 0.0776367H18.5312C19.3425 0.0776367 20 0.718887 20 1.51014V18.6451C20 19.4364 19.3425 20.0776 18.5312 20.0776H1.46875C0.6575 20.0776 0 19.4364 0 18.6451V1.51014ZM6.17875 16.8201V7.78889H3.1775V16.8201H6.17875ZM4.67875 6.55514C5.725 6.55514 6.37625 5.86264 6.37625 4.99514C6.3575 4.10889 5.72625 3.43514 4.69875 3.43514C3.67125 3.43514 3 4.11014 3 4.99514C3 5.86264 3.65125 6.55514 4.65875 6.55514H4.67875ZM10.8138 16.8201V11.7764C10.8138 11.5064 10.8337 11.2364 10.9137 11.0439C11.13 10.5051 11.6238 9.94639 12.4538 9.94639C13.54 9.94639 13.9738 10.7739 13.9738 11.9889V16.8201H16.975V11.6401C16.975 8.86514 15.495 7.57514 13.52 7.57514C11.9275 7.57514 11.2137 8.45014 10.8138 9.06639V9.09764H10.7938C10.8004 9.0872 10.8071 9.07679 10.8138 9.06639V7.78889H7.81375C7.85125 8.63639 7.81375 16.8201 7.81375 16.8201H10.8138Z" fill="#999999"/>
</g>
<defs>
<clipPath id="clip0_534_492">
<rect width="20" height="20" fill="white" transform="translate(0 0.0776367)"/>
</clipPath>
</defs>
</svg>
