<svg width="17" height="16" viewBox="0 0 17 16" fill="none" xmlns="http://www.w3.org/2000/svg">
    <g clip-path="url(#clip0_641_5188)">
        <path
            d="M9 2.68712C9.654 1.99812 10.782 1.80112 12.112 1.93512C13.346 2.05912 14.615 2.45812 15.5 2.82812V12.7511C14.582 12.4011 13.393 12.0591 12.213 11.9411C11.119 11.8301 9.935 11.9021 9 12.4331V2.68712ZM8.5 1.78312C7.515 0.936125 6.087 0.810125 4.787 0.940125C3.273 1.09312 1.745 1.61213 0.793 2.04513C0.705649 2.08485 0.631575 2.14888 0.579621 2.22956C0.527667 2.31024 0.500027 2.40416 0.5 2.50012V13.5001C0.500023 13.5838 0.521037 13.6661 0.561117 13.7395C0.601197 13.813 0.659062 13.8752 0.729411 13.9204C0.79976 13.9657 0.880345 13.9926 0.963783 13.9987C1.04722 14.0047 1.13085 13.9898 1.207 13.9551C2.089 13.5551 3.51 13.0741 4.887 12.9351C6.296 12.7931 7.477 13.0221 8.11 13.8121C8.15685 13.8705 8.21622 13.9177 8.28372 13.95C8.35122 13.9824 8.42513 13.9992 8.5 13.9992C8.57487 13.9992 8.64878 13.9824 8.71628 13.95C8.78378 13.9177 8.84315 13.8705 8.89 13.8121C9.523 13.0221 10.704 12.7931 12.112 12.9351C13.49 13.0741 14.912 13.5551 15.793 13.9551C15.8692 13.9898 15.9528 14.0047 16.0362 13.9987C16.1197 13.9926 16.2002 13.9657 16.2706 13.9204C16.3409 13.8752 16.3988 13.813 16.4389 13.7395C16.479 13.6661 16.5 13.5838 16.5 13.5001V2.50012C16.5 2.40416 16.4723 2.31024 16.4204 2.22956C16.3684 2.14888 16.2944 2.08485 16.207 2.04513C15.255 1.61213 13.727 1.09312 12.213 0.940125C10.913 0.809125 9.485 0.936125 8.5 1.78312Z"
            fill="#66BFF1" />
    </g>
    <defs>
        <clipPath id="clip0_641_5188">
            <rect width="16" height="16" fill="white" transform="translate(0.5)" />
        </clipPath>
    </defs>
</svg>