<svg width="48" height="48" viewBox="0 0 48 48" fill="none" xmlns="http://www.w3.org/2000/svg">
<g clip-path="url(#clip0_281_1735)">
<path d="M47.955 25.5H24.621L8.12099 42C11.4893 44.9716 15.6238 46.9383 20.0545 47.6765C24.4852 48.4147 29.0341 47.8947 33.1838 46.1757C37.3336 44.4566 40.9177 41.6075 43.5284 37.9524C46.1392 34.2974 47.6748 29.983 47.955 25.5ZM5.99999 39.876C3.02839 36.5077 1.06165 32.3731 0.323463 27.9425C-0.414721 23.5118 0.105278 18.9629 1.82432 14.8131C3.54336 10.6634 6.39245 7.0793 10.0475 4.46856C13.7026 1.85781 18.017 0.325182 22.5 0.0449829V23.379L5.99999 39.879V39.876ZM25.5 0.0449829V22.5H47.955C47.5893 16.6643 45.1062 11.1628 40.9717 7.02832C36.8371 2.8938 31.3356 0.410629 25.5 0.0449829Z" fill="#D7A77F"/>
</g>
<defs>
<clipPath id="clip0_281_1735">
<rect width="48" height="48" fill="white"/>
</clipPath>
</defs>
</svg>
