<svg width="48" height="48" viewBox="0 0 48 48" fill="none" xmlns="http://www.w3.org/2000/svg">
<g clip-path="url(#clip0_357_2897)">
<path d="M1.5 0C1.89782 0 2.27936 0.158035 2.56066 0.43934C2.84196 0.720644 3 1.10218 3 1.5V46.5C3 46.8978 2.84196 47.2794 2.56066 47.5607C2.27936 47.842 1.89782 48 1.5 48C1.10218 48 0.720644 47.842 0.43934 47.5607C0.158035 47.2794 0 46.8978 0 46.5V1.5C0 1.10218 0.158035 0.720644 0.43934 0.43934C0.720644 0.158035 1.10218 0 1.5 0ZM6 4.5C6 4.10218 6.15804 3.72064 6.43934 3.43934C6.72064 3.15804 7.10218 3 7.5 3H19.5C19.8978 3 20.2794 3.15804 20.5607 3.43934C20.842 3.72064 21 4.10218 21 4.5V7.5C21 7.89782 20.842 8.27936 20.5607 8.56066C20.2794 8.84196 19.8978 9 19.5 9H7.5C7.10218 9 6.72064 8.84196 6.43934 8.56066C6.15804 8.27936 6 7.89782 6 7.5V4.5ZM12 16.5C12 16.1022 12.158 15.7206 12.4393 15.4393C12.7206 15.158 13.1022 15 13.5 15H34.5C34.8978 15 35.2794 15.158 35.5607 15.4393C35.842 15.7206 36 16.1022 36 16.5V19.5C36 19.8978 35.842 20.2794 35.5607 20.5607C35.2794 20.842 34.8978 21 34.5 21H13.5C13.1022 21 12.7206 20.842 12.4393 20.5607C12.158 20.2794 12 19.8978 12 19.5V16.5ZM18 28.5C18 28.1022 18.158 27.7206 18.4393 27.4393C18.7206 27.158 19.1022 27 19.5 27H37.5C37.8978 27 38.2794 27.158 38.5607 27.4393C38.842 27.7206 39 28.1022 39 28.5V31.5C39 31.8978 38.842 32.2794 38.5607 32.5607C38.2794 32.842 37.8978 33 37.5 33H19.5C19.1022 33 18.7206 32.842 18.4393 32.5607C18.158 32.2794 18 31.8978 18 31.5V28.5ZM24 40.5C24 40.1022 24.158 39.7206 24.4393 39.4393C24.7206 39.158 25.1022 39 25.5 39H46.5C46.8978 39 47.2794 39.158 47.5607 39.4393C47.842 39.7206 48 40.1022 48 40.5V43.5C48 43.8978 47.842 44.2794 47.5607 44.5607C47.2794 44.842 46.8978 45 46.5 45H25.5C25.1022 45 24.7206 44.842 24.4393 44.5607C24.158 44.2794 24 43.8978 24 43.5V40.5Z" fill="#5A9DB4"/>
</g>
<defs>
<clipPath id="clip0_357_2897">
<rect width="48" height="48" fill="white"/>
</clipPath>
</defs>
</svg>
