<svg width="24" height="24" viewBox="0 0 16 17" fill="none" xmlns="http://www.w3.org/2000/svg">
    <g clip-path="url(#clip0_1511_39260)">
        <path
            d="M2.5 1.3651C2.23478 1.3651 1.98043 1.47045 1.79289 1.65799C1.60536 1.84553 1.5 2.09988 1.5 2.3651V3.3651C1.5 3.63031 1.60536 3.88467 1.79289 4.0722C1.98043 4.25974 2.23478 4.3651 2.5 4.3651H3V13.3651C3 13.8955 3.21071 14.4042 3.58579 14.7793C3.96086 15.1544 4.46957 15.3651 5 15.3651H11C11.5304 15.3651 12.0391 15.1544 12.4142 14.7793C12.7893 14.4042 13 13.8955 13 13.3651V4.3651H13.5C13.7652 4.3651 14.0196 4.25974 14.2071 4.0722C14.3946 3.88467 14.5 3.63031 14.5 3.3651V2.3651C14.5 2.09988 14.3946 1.84553 14.2071 1.65799C14.0196 1.47045 13.7652 1.3651 13.5 1.3651H10C10 1.09988 9.89464 0.845527 9.70711 0.65799C9.51957 0.470454 9.26522 0.365097 9 0.365097H7C6.73478 0.365097 6.48043 0.470454 6.29289 0.65799C6.10536 0.845527 6 1.09988 6 1.3651H2.5ZM5.5 5.3651C5.63261 5.3651 5.75979 5.41778 5.85355 5.51154C5.94732 5.60531 6 5.73249 6 5.8651V12.8651C6 12.9977 5.94732 13.1249 5.85355 13.2187C5.75979 13.3124 5.63261 13.3651 5.5 13.3651C5.36739 13.3651 5.24021 13.3124 5.14645 13.2187C5.05268 13.1249 5 12.9977 5 12.8651V5.8651C5 5.73249 5.05268 5.60531 5.14645 5.51154C5.24021 5.41778 5.36739 5.3651 5.5 5.3651ZM8 5.3651C8.13261 5.3651 8.25979 5.41778 8.35355 5.51154C8.44732 5.60531 8.5 5.73249 8.5 5.8651V12.8651C8.5 12.9977 8.44732 13.1249 8.35355 13.2187C8.25979 13.3124 8.13261 13.3651 8 13.3651C7.86739 13.3651 7.74021 13.3124 7.64645 13.2187C7.55268 13.1249 7.5 12.9977 7.5 12.8651V5.8651C7.5 5.73249 7.55268 5.60531 7.64645 5.51154C7.74021 5.41778 7.86739 5.3651 8 5.3651ZM11 5.8651V12.8651C11 12.9977 10.9473 13.1249 10.8536 13.2187C10.7598 13.3124 10.6326 13.3651 10.5 13.3651C10.3674 13.3651 10.2402 13.3124 10.1464 13.2187C10.0527 13.1249 10 12.9977 10 12.8651V5.8651C10 5.73249 10.0527 5.60531 10.1464 5.51154C10.2402 5.41778 10.3674 5.3651 10.5 5.3651C10.6326 5.3651 10.7598 5.41778 10.8536 5.51154C10.9473 5.60531 11 5.73249 11 5.8651Z"
            fill="#159DEA" />
    </g>
    <defs>
        <clipPath id="clip0_1511_39260">
            <rect width="16" height="16" fill="white" transform="translate(0 0.365097)" />
        </clipPath>
    </defs>
</svg>