<svg width="16" height="18" viewBox="0 0 16 18" fill="none" xmlns="http://www.w3.org/2000/svg">
    <g clip-path="url(#clip0_1165_1665)">
        <path
            d="M4 12.4824C4 12.2172 4.10536 11.9629 4.29289 11.7753C4.48043 11.5878 4.73478 11.4824 5 11.4824C5.26522 11.4824 5.51957 11.5878 5.70711 11.7753C5.89464 11.9629 6 12.2172 6 12.4824V13.4824C6 13.7476 5.89464 14.002 5.70711 14.1895C5.51957 14.3771 5.26522 14.4824 5 14.4824C4.73478 14.4824 4.48043 14.3771 4.29289 14.1895C4.10536 14.002 4 13.7476 4 13.4824V12.4824ZM10 8.48242C10 8.21721 10.1054 7.96285 10.2929 7.77532C10.4804 7.58778 10.7348 7.48242 11 7.48242C11.2652 7.48242 11.5196 7.58778 11.7071 7.77532C11.8946 7.96285 12 8.21721 12 8.48242V13.4824C12 13.7476 11.8946 14.002 11.7071 14.1895C11.5196 14.3771 11.2652 14.4824 11 14.4824C10.7348 14.4824 10.4804 14.3771 10.2929 14.1895C10.1054 14.002 10 13.7476 10 13.4824V8.48242ZM7 10.4824C7 10.2172 7.10536 9.96285 7.29289 9.77532C7.48043 9.58778 7.73478 9.48242 8 9.48242C8.26522 9.48242 8.51957 9.58778 8.70711 9.77532C8.89464 9.96285 9 10.2172 9 10.4824V13.4824C9 13.7476 8.89464 14.002 8.70711 14.1895C8.51957 14.3771 8.26522 14.4824 8 14.4824C7.73478 14.4824 7.48043 14.3771 7.29289 14.1895C7.10536 14.002 7 13.7476 7 13.4824V10.4824Z"
            fill="white" />
        <path
            d="M4 2.98242H3C2.46957 2.98242 1.96086 3.19314 1.58579 3.56821C1.21071 3.94328 1 4.45199 1 4.98242V15.4824C1 16.0129 1.21071 16.5216 1.58579 16.8966C1.96086 17.2717 2.46957 17.4824 3 17.4824H13C13.5304 17.4824 14.0391 17.2717 14.4142 16.8966C14.7893 16.5216 15 16.0129 15 15.4824V4.98242C15 4.45199 14.7893 3.94328 14.4142 3.56821C14.0391 3.19314 13.5304 2.98242 13 2.98242H12V3.98242H13C13.2652 3.98242 13.5196 4.08778 13.7071 4.27532C13.8946 4.46285 14 4.71721 14 4.98242V15.4824C14 15.7476 13.8946 16.002 13.7071 16.1895C13.5196 16.3771 13.2652 16.4824 13 16.4824H3C2.73478 16.4824 2.48043 16.3771 2.29289 16.1895C2.10536 16.002 2 15.7476 2 15.4824V4.98242C2 4.71721 2.10536 4.46285 2.29289 4.27532C2.48043 4.08778 2.73478 3.98242 3 3.98242H4V2.98242Z"
            fill="white" />
        <path
            d="M9.5 2.48242C9.63261 2.48242 9.75979 2.5351 9.85355 2.62887C9.94732 2.72264 10 2.84981 10 2.98242V3.98242C10 4.11503 9.94732 4.24221 9.85355 4.33598C9.75979 4.42974 9.63261 4.48242 9.5 4.48242H6.5C6.36739 4.48242 6.24021 4.42974 6.14645 4.33598C6.05268 4.24221 6 4.11503 6 3.98242V2.98242C6 2.84981 6.05268 2.72264 6.14645 2.62887C6.24021 2.5351 6.36739 2.48242 6.5 2.48242H9.5ZM6.5 1.48242C6.10218 1.48242 5.72064 1.64046 5.43934 1.92176C5.15804 2.20307 5 2.5846 5 2.98242V3.98242C5 4.38025 5.15804 4.76178 5.43934 5.04308C5.72064 5.32439 6.10218 5.48242 6.5 5.48242H9.5C9.89782 5.48242 10.2794 5.32439 10.5607 5.04308C10.842 4.76178 11 4.38025 11 3.98242V2.98242C11 2.5846 10.842 2.20307 10.5607 1.92176C10.2794 1.64046 9.89782 1.48242 9.5 1.48242H6.5Z"
            fill="white" />
    </g>
    <defs>
        <clipPath id="clip0_1165_1665">
            <rect width="16" height="16" fill="white" transform="translate(0 1.48242)" />
        </clipPath>
    </defs>
</svg>