<svg width="100" height="76" viewBox="0 0 100 76" fill="none" xmlns="http://www.w3.org/2000/svg">
    <g clip-path="url(#clip0_943_3120)">
        <path
            d="M84.375 6.47644C85.2038 6.47644 85.9987 6.80568 86.5847 7.39173C87.1708 7.97778 87.5 8.77264 87.5 9.60144V56.4764H12.5V9.60144C12.5 8.77264 12.8292 7.97778 13.4153 7.39173C14.0013 6.80568 14.7962 6.47644 15.625 6.47644H84.375ZM15.625 0.22644C13.1386 0.22644 10.754 1.21416 8.99587 2.97231C7.23772 4.73047 6.25 7.11504 6.25 9.60144V62.7264H93.75V9.60144C93.75 7.11504 92.7623 4.73047 91.0041 2.97231C89.246 1.21416 86.8614 0.22644 84.375 0.22644H15.625ZM0 65.8514H100C100 68.3378 99.0123 70.7224 97.2541 72.4806C95.496 74.2387 93.1114 75.2264 90.625 75.2264H9.375C6.8886 75.2264 4.50403 74.2387 2.74587 72.4806C0.98772 70.7224 0 68.3378 0 65.8514Z"
            fill="white" />
        <path
            d="M38.0384 34.9281C38.4081 34.7147 38.8474 34.6568 39.2597 34.7673C39.672 34.8778 40.0236 35.1475 40.237 35.5172C41.2256 37.2308 42.6483 38.6538 44.3618 39.6427C46.0752 40.6317 48.019 41.1518 49.9973 41.1506C51.9757 41.1518 53.9195 40.6317 55.6329 39.6427C57.3464 38.6538 58.7691 37.2308 59.7577 35.5172C59.8626 35.3327 60.003 35.1707 60.1707 35.0407C60.3385 34.9106 60.5303 34.815 60.7352 34.7594C60.94 34.7038 61.1539 34.6892 61.3643 34.7166C61.5748 34.744 61.7779 34.8127 61.9617 34.9188C62.1455 35.025 62.3065 35.1664 62.4355 35.335C62.5644 35.5036 62.6587 35.6961 62.713 35.9013C62.7672 36.1065 62.7804 36.3205 62.7516 36.5308C62.7228 36.7411 62.6528 36.9436 62.5454 37.1267C61.2743 39.3297 59.4453 41.159 57.2425 42.4305C55.0396 43.702 52.5408 44.3709 49.9973 44.3697C47.4539 44.3709 44.955 43.702 42.7522 42.4305C40.5494 41.159 38.7204 39.3297 37.4493 37.1267C37.2358 36.7571 37.178 36.3177 37.2885 35.9054C37.399 35.4931 37.6687 35.1415 38.0384 34.9281ZM46.7782 25.0551C46.7782 27.7205 45.3361 29.8838 43.5591 29.8838C41.7822 29.8838 40.34 27.7205 40.34 25.0551C40.34 22.3897 41.7822 20.2264 43.5591 20.2264C45.3361 20.2264 46.7782 22.3897 46.7782 25.0551ZM59.6547 25.0551C59.6547 27.7205 58.2125 29.8838 56.4356 29.8838C54.6586 29.8838 53.2165 27.7205 53.2165 25.0551C53.2165 22.3897 54.6586 20.2264 56.4356 20.2264C58.2125 20.2264 59.6547 22.3897 59.6547 25.0551Z"
            fill="white" />
    </g>
    <defs>
        <clipPath id="clip0_943_3120">
            <rect width="100" height="75" fill="white" transform="translate(0 0.394653)" />
        </clipPath>
    </defs>
</svg>