<svg width="20" height="21" viewBox="0 0 20 21" fill="none" xmlns="http://www.w3.org/2000/svg">
<path d="M0.0625 5.05166C0.188523 4.49946 0.498319 4.00643 0.941152 3.6533C1.38398 3.30016 1.93361 3.10787 2.5 3.10791H17.5C18.0664 3.10787 18.616 3.30016 19.0588 3.6533C19.5017 4.00643 19.8115 4.49946 19.9375 5.05166L10 11.1254L0.0625 5.05166ZM0 6.47916V15.3592L7.25375 10.9117L0 6.47916ZM8.45125 11.6454L0.23875 16.6792C0.441658 17.107 0.761908 17.4684 1.16223 17.7214C1.56255 17.9743 2.02647 18.1084 2.5 18.1079H17.5C17.9735 18.108 18.4372 17.9737 18.8373 17.7205C19.2374 17.4674 19.5574 17.1058 19.76 16.6779L11.5475 11.6442L10 12.5904L8.45125 11.6454ZM12.7462 10.9129L20 15.3592V6.47916L12.7462 10.9117V10.9129Z" fill="#999999"/>
</svg>
