<svg width="48" height="48" viewBox="0 0 48 48" fill="none" xmlns="http://www.w3.org/2000/svg">
<path d="M15 6C15 5.20435 14.6839 4.44129 14.1213 3.87868C13.5587 3.31607 12.7957 3 12 3H6C5.20435 3 4.44129 3.31607 3.87868 3.87868C3.31607 4.44129 3 5.20435 3 6V42H1.5C1.10218 42 0.720642 42.158 0.439339 42.4393C0.158035 42.7206 0 43.1022 0 43.5C0 43.8978 0.158035 44.2794 0.439339 44.5607C0.720642 44.842 1.10218 45 1.5 45H46.5C46.8978 45 47.2794 44.842 47.5607 44.5607C47.842 44.2794 48 43.8978 48 43.5C48 43.1022 47.842 42.7206 47.5607 42.4393C47.2794 42.158 46.8978 42 46.5 42H45V33C45 32.2044 44.6839 31.4413 44.1213 30.8787C43.5587 30.3161 42.7956 30 42 30H36C35.2044 30 34.4413 30.3161 33.8787 30.8787C33.3161 31.4413 33 32.2044 33 33V42H30V21C30 20.2044 29.6839 19.4413 29.1213 18.8787C28.5587 18.3161 27.7956 18 27 18H21C20.2044 18 19.4413 18.3161 18.8787 18.8787C18.3161 19.4413 18 20.2044 18 21V42H15V6Z" fill="#5FB8A5"/>
</svg>
