<svg xmlns="http://www.w3.org/2000/svg" xmlns:xlink="http://www.w3.org/1999/xlink" xmlns:serif="http://www.serif.com/"
    viewBox="0 0 32 40" version="1.1" xml:space="preserve" style="" x="0px" y="0px" fill-rule="evenodd"
    clip-rule="evenodd" stroke-linejoin="round" stroke-miterlimit="2" width="70" height="70">
    <path fill="#3A5C8D"
        d="M5,2c-1.656,0 -3,1.344 -3,3l0,22c0,1.656 1.344,3 3,3l22,0c1.656,0 3,-1.344 3,-3l0,-22c0,-1.656 -1.344,-3 -3,-3l-22,0Zm0,2l22,0c0.552,0 1,0.448 1,1l0,22c0,0.552 -0.448,1 -1,1l-22,0c-0.552,0 -1,-0.448 -1,-1l0,-22c0,-0.552 0.448,-1 1,-1Zm3,4c-0.552,0 -1,0.448 -1,1l0,2c0,0.552 0.448,1 1,1c0.552,0 1,-0.448 1,-1l0,-1l3,0l0,12l-1,0c-0.552,0 -1,0.448 -1,1c0,0.552 0.448,1 1,1l4,0c0.552,0 1,-0.448 1,-1c0,-0.552 -0.448,-1 -1,-1l-1,0l0,-12l3,0l0,1c0,0.552 0.448,1 1,1c0.552,0 1,-0.448 1,-1l0,-2c0,-0.552 -0.448,-1 -1,-1l-10,0Zm10,6c-0.552,0 -1,0.448 -1,1l0,2c0,0.552 0.448,1 1,1c0.552,0 1,-0.448 1,-1l0,-1l1,0l0,6c-0.552,0 -1,0.448 -1,1c0,0.552 0.448,1 1,1l2,0c0.552,0 1,-0.448 1,-1c0,-0.552 -0.448,-1 -1,-1l0,-6l1,0l0,1c0,0.552 0.448,1 1,1c0.552,0 1,-0.448 1,-1l0,-2c0,-0.552 -0.448,-1 -1,-1l-6,0Z" />

</svg>