<svg width="48" height="48" viewBox="0 0 48 48" fill="none" xmlns="http://www.w3.org/2000/svg">
<path d="M19.1218 22.104L19.1218 15.323C19.1218 14.9218 18.7968 14.5968 18.3955 14.5968L7.8672 14.5968C7.46592 14.5968 7.14096 14.9218 7.14096 15.323L7.14096 22.104C7.14096 22.5053 7.46592 22.8298 7.8672 22.8298L18.396 22.8298C18.7973 22.8298 19.1218 22.5048 19.1218 22.104Z" fill="#D2CC7F"/>
<path d="M40.8586 32.6769L40.8586 25.896C40.8586 25.4947 40.5336 25.1697 40.1323 25.1697L7.86767 25.1697C7.46639 25.1697 7.14143 25.4947 7.14143 25.896L7.14143 32.6769C7.14143 33.0782 7.46639 33.4032 7.86767 33.4032L40.1323 33.4032C40.5336 33.4032 40.8586 33.0782 40.8586 32.6769Z" fill="#D2CC7F"/>
<path d="M31.0565 43.3041L31.0565 36.5232C31.0565 36.1219 30.7315 35.7969 30.3302 35.7969L7.86769 35.7969C7.46641 35.7969 7.14145 36.1219 7.14145 36.5232L7.14145 43.3037C7.14145 43.7049 7.46641 44.0299 7.86769 44.0299L30.3302 44.0299C30.731 44.0299 31.0565 43.7049 31.0565 43.3041Z" fill="#D2CC7F"/>
<path d="M31.0565 11.4768L31.0565 4.69584C31.0565 4.29456 30.7315 3.9696 30.3302 3.9696L7.86769 3.9696C7.46641 3.9696 7.14145 4.29456 7.14145 4.69584L7.14145 11.4768C7.14145 11.8781 7.46641 12.203 7.86769 12.203L30.3302 12.203C30.731 12.203 31.0565 11.8781 31.0565 11.4768Z" fill="#D2CC7F"/>
</svg>
