<svg width="48" height="48" viewBox="0 0 48 48" fill="none" xmlns="http://www.w3.org/2000/svg">
<path d="M33 6C33 5.20435 33.3161 4.44129 33.8787 3.87868C34.4413 3.31607 35.2043 3 36 3H42C42.7957 3 43.5587 3.31607 44.1213 3.87868C44.6839 4.44129 45 5.20435 45 6V42H46.5C46.8978 42 47.2794 42.158 47.5607 42.4393C47.842 42.7206 48 43.1022 48 43.5C48 43.8978 47.842 44.2794 47.5607 44.5607C47.2794 44.842 46.8978 45 46.5 45H1.5C1.10218 45 0.720644 44.842 0.43934 44.5607C0.158035 44.2794 0 43.8978 0 43.5C0 43.1022 0.158035 42.7206 0.43934 42.4393C0.720644 42.158 1.10218 42 1.5 42H3V33C3 32.2044 3.31607 31.4413 3.87868 30.8787C4.44129 30.3161 5.20435 30 6 30H12C12.7956 30 13.5587 30.3161 14.1213 30.8787C14.6839 31.4413 15 32.2044 15 33V42H18V21C18 20.2044 18.3161 19.4413 18.8787 18.8787C19.4413 18.3161 20.2044 18 21 18H27C27.7956 18 28.5587 18.3161 29.1213 18.8787C29.6839 19.4413 30 20.2044 30 21V42H33V6Z" fill="#DB7C82"/>
</svg>
