<svg width="48" height="48" viewBox="0 0 48 48" fill="none" xmlns="http://www.w3.org/2000/svg">
<path d="M26.3318 3.3515C25.9252 3.3515 25.5949 3.68183 25.5949 4.08891C25.5949 4.12672 25.611 4.15954 25.6166 4.19624H25.5949V21.6794C25.5949 22.0864 25.9252 22.4168 26.3318 22.4168H43.8143V22.3951C43.851 22.4006 43.8838 22.4168 43.9222 22.4168C44.3287 22.4168 44.6591 22.0864 44.6591 21.6794C44.5545 11.6026 36.4085 3.45661 26.3318 3.3515Z" fill="#BD7DB2"/>
<path d="M40.397 25.9241C40.397 25.5171 40.0672 25.1867 39.6601 25.1867H23.589C23.3935 25.1866 23.2061 25.1088 23.0679 24.9706C22.9298 24.8323 22.8521 24.6448 22.8521 24.4493V8.43714H22.8305C22.836 8.40044 22.8521 8.36763 22.8521 8.32981C22.8521 7.92218 22.5218 7.59241 22.1147 7.59241C22.0969 7.59241 22.0825 7.6013 22.0652 7.60242V7.59741C21.9996 7.59686 21.9346 7.59241 21.8689 7.59241C11.6364 7.59241 3.34088 15.888 3.34088 26.1205C3.34088 36.353 11.6364 44.6485 21.8689 44.6485C32.1014 44.6485 40.397 36.353 40.397 26.1205C40.397 26.0615 40.3942 26.0031 40.3931 25.9436C40.3931 25.9364 40.397 25.9308 40.397 25.9241Z" fill="#BD7DB2"/>
</svg>
