<svg width="17" height="17" viewBox="0 0 17 17" fill="none" xmlns="http://www.w3.org/2000/svg">
    <path
        d="M12 2.06738C12 1.80217 12.1054 1.54781 12.2929 1.36028C12.4804 1.17274 12.7348 1.06738 13 1.06738H15C15.2652 1.06738 15.5196 1.17274 15.7071 1.36028C15.8946 1.54781 16 1.80217 16 2.06738V14.0674H16.5C16.6326 14.0674 16.7598 14.1201 16.8536 14.2138C16.9473 14.3076 17 14.4348 17 14.5674C17 14.7 16.9473 14.8272 16.8536 14.9209C16.7598 15.0147 16.6326 15.0674 16.5 15.0674H1.5C1.36739 15.0674 1.24021 15.0147 1.14645 14.9209C1.05268 14.8272 1 14.7 1 14.5674C1 14.4348 1.05268 14.3076 1.14645 14.2138C1.24021 14.1201 1.36739 14.0674 1.5 14.0674H2V11.0674C2 10.8022 2.10536 10.5478 2.29289 10.3603C2.48043 10.1727 2.73478 10.0674 3 10.0674H5C5.26522 10.0674 5.51957 10.1727 5.70711 10.3603C5.89464 10.5478 6 10.8022 6 11.0674V14.0674H7V7.06738C7 6.80217 7.10536 6.54781 7.29289 6.36028C7.48043 6.17274 7.73478 6.06738 8 6.06738H10C10.2652 6.06738 10.5196 6.17274 10.7071 6.36028C10.8946 6.54781 11 6.80217 11 7.06738V14.0674H12V2.06738Z"
        fill="white" />
</svg>