<svg width="48" height="48" viewBox="0 0 48 48" fill="none" xmlns="http://www.w3.org/2000/svg">
<g clip-path="url(#clip0_357_2892)">
<path d="M-0.00284354 22.5479L23.3312 22.5479L39.8312 6.04793C36.4629 3.07632 32.3283 1.10958 27.8976 0.371396C23.467 -0.366789 18.9181 0.153212 14.7683 1.87225C10.6186 3.59129 7.03448 6.44038 4.42373 10.0955C1.81299 13.7506 0.277356 18.0649 -0.00284354 22.5479ZM41.9522 8.17193C44.9238 11.5402 46.8905 15.6748 47.6287 20.1054C48.3669 24.5361 47.8469 29.085 46.1278 33.2348C44.4088 37.3845 41.5597 40.9686 37.9046 43.5794C34.2495 46.1901 29.9351 47.7227 25.4522 48.0029L25.4522 24.6689L41.9522 8.16893L41.9522 8.17193ZM22.4522 48.0029L22.4522 25.5479L-0.0028438 25.5479C0.362802 31.3836 2.84598 36.8851 6.98049 41.0196C11.115 45.1541 16.6165 47.6373 22.4522 48.0029Z" fill="#6789B9"/>
</g>
<defs>
<clipPath id="clip0_357_2892">
<rect width="48" height="48" fill="white"/>
</clipPath>
</defs>
</svg>
