<svg width="48" height="48" viewBox="0 0 48 48" fill="none" xmlns="http://www.w3.org/2000/svg">
<path fill-rule="evenodd" clip-rule="evenodd" d="M0 0H3V45H48V48H0V0ZM44.451 9.339C44.6036 9.46383 44.73 9.6175 44.8231 9.79122C44.9163 9.96495 44.9742 10.1553 44.9937 10.3515C45.0132 10.5476 44.9939 10.7457 44.9368 10.9344C44.8797 11.123 44.786 11.2986 44.661 11.451L31.161 27.951C31.0283 28.113 30.8632 28.2453 30.6763 28.3396C30.4893 28.4339 30.2847 28.488 30.0756 28.4985C29.8665 28.509 29.6575 28.4755 29.4621 28.4003C29.2667 28.3252 29.0892 28.2099 28.941 28.062L21.18 20.301L10.212 35.382C9.97207 35.6871 9.62321 35.8873 9.23875 35.9406C8.85429 35.9938 8.46415 35.896 8.15032 35.6676C7.83648 35.4392 7.6234 35.0981 7.55583 34.7159C7.48827 34.3337 7.57149 33.9401 7.788 33.618L19.788 17.118C19.9154 16.9425 20.0793 16.7968 20.2684 16.6908C20.4575 16.5847 20.6674 16.521 20.8835 16.5039C21.0997 16.4868 21.3169 16.5167 21.5204 16.5917C21.7238 16.6666 21.9086 16.7848 22.062 16.938L29.889 24.768L42.339 9.549C42.4638 9.39645 42.6175 9.27 42.7912 9.17687C42.965 9.08375 43.1553 9.02577 43.3515 9.00627C43.5476 8.98677 43.7457 9.00611 43.9344 9.06321C44.123 9.1203 44.2986 9.21402 44.451 9.339Z" fill="#9379BB"/>
</svg>
