<svg width="18" height="19" viewBox="0 0 18 19" fill="none" xmlns="http://www.w3.org/2000/svg">
    <rect y="0.115906" width="18" height="18" rx="3" fill="#999999" />
    <path
        d="M4.89352 7.9178L3.17852 9.6328C2.4752 10.3361 2.08008 11.29 2.08008 12.2847C2.08008 13.2793 2.4752 14.2332 3.17852 14.9365C3.88184 15.6399 4.83575 16.035 5.8304 16.035C6.82504 16.035 7.77895 15.6399 8.48227 14.9365L10.7673 12.6503C11.1914 12.2261 11.5076 11.7064 11.6893 11.1347C11.871 10.5631 11.9129 9.95617 11.8115 9.36496C11.7101 8.77376 11.4683 8.2155 11.1066 7.73705C10.7448 7.2586 10.2735 6.87392 9.73227 6.6153L8.99977 7.3478C8.92541 7.42229 8.86073 7.50587 8.80727 7.59655C9.22543 7.71676 9.60498 7.94402 9.90839 8.25587C10.2118 8.56772 10.4286 8.95335 10.5373 9.37465C10.646 9.79594 10.6428 10.2383 10.5282 10.658C10.4135 11.0777 10.1913 11.4603 9.88352 11.7678L7.59977 14.0528C7.13067 14.5219 6.49443 14.7854 5.83102 14.7854C5.16761 14.7854 4.53137 14.5219 4.06227 14.0528C3.59317 13.5837 3.32963 12.9475 3.32963 12.284C3.32963 11.6206 3.59317 10.9844 4.06227 10.5153L5.05352 9.5253C4.91366 9.0012 4.85963 8.45917 4.89352 7.9178Z"
        fill="white" />
    <path
        d="M7.23293 5.58028C6.80881 6.00446 6.49263 6.52419 6.31094 7.09585C6.12925 7.6675 6.08733 8.27441 6.18873 8.86561C6.29012 9.45682 6.53185 10.0151 6.89364 10.4935C7.25543 10.972 7.72671 11.3567 8.26793 11.6153L9.23668 10.6453C8.81286 10.5316 8.42643 10.3084 8.11622 9.99803C7.80601 9.68769 7.58294 9.30117 7.46944 8.87731C7.35594 8.45344 7.356 8.00717 7.46961 7.58334C7.58322 7.15951 7.80639 6.77304 8.11668 6.46278L10.4004 4.17778C10.8695 3.70868 11.5058 3.44514 12.1692 3.44514C12.8326 3.44514 13.4688 3.70868 13.9379 4.17778C14.407 4.64688 14.6706 5.28312 14.6706 5.94653C14.6706 6.60994 14.407 7.24618 13.9379 7.71528L12.9467 8.70528C13.0867 9.23028 13.1404 9.77403 13.1067 10.314L14.8217 8.59903C15.525 7.89571 15.9201 6.9418 15.9201 5.94716C15.9201 4.95251 15.525 3.9986 14.8217 3.29528C14.1184 2.59196 13.1644 2.19684 12.1698 2.19684C11.1752 2.19684 10.2212 2.59196 9.51793 3.29528L7.23293 5.58028Z"
        fill="white" />
</svg>