<svg width="31" height="40" viewBox="0 0 31 40" fill="none" xmlns="http://www.w3.org/2000/svg">
<path d="M30.5 24.1343C30.3402 24.2827 30.1764 24.4272 30.0211 24.5804C29.8275 24.7712 29.6243 24.9558 29.456 25.1674C29.2772 25.3926 29.3097 25.6418 29.4654 25.8781C29.5557 26.0154 29.646 26.1533 29.7273 26.2956C29.8046 26.4308 29.7739 26.5545 29.6607 26.659C29.6499 26.6692 29.6427 26.684 29.6306 26.6924C29.4277 26.8306 29.4097 26.9976 29.5018 27.2219C29.6361 27.5485 29.6038 27.6105 29.323 27.8246C29.2279 27.8971 29.13 27.9666 29.04 28.0452C28.7056 28.3372 28.6156 28.7078 28.705 29.131C28.7568 29.3752 28.832 29.616 28.8657 29.8622C28.9569 30.5332 28.7772 30.8393 28.0478 30.8962C27.261 30.9577 26.4677 30.9438 25.6772 30.9583C25.2913 30.9652 24.9039 30.942 24.5201 30.9706C24.2751 30.9887 24.0234 31.0468 23.7961 31.1398C23.4698 31.2731 23.3247 31.569 23.2597 31.9017C23.2052 32.1813 23.1519 32.4619 23.1143 32.7442C23.0261 33.4086 22.7278 33.977 22.3292 34.4998C21.9454 35.0035 21.5499 35.4977 21.1706 36.0047C21.0462 36.1708 20.9427 36.3566 20.8548 36.545C20.6968 36.8834 20.8048 37.2265 21.1251 37.4695C21.4659 37.7277 21.8626 37.862 22.2672 37.9725C22.9626 38.1621 23.6739 38.2597 24.3892 38.3452C25.1333 38.434 25.8798 38.5213 26.6047 38.7287C26.9906 38.8391 27.2441 38.9605 27.4488 39.1645H5.59032C5.69388 38.9039 5.78117 38.6498 5.89346 38.4075C6.40641 37.3015 7.1075 36.3226 7.96001 35.4574C8.60601 34.8021 9.28784 34.182 9.94739 33.5399C10.6154 32.8896 11.2755 32.2319 11.7421 31.4107C12.0197 30.9224 12.243 30.4095 12.3923 29.8703C12.5573 29.2749 12.7078 28.6735 12.8246 28.0672C12.8875 27.7412 12.8857 27.3983 12.8791 27.0639C12.8686 26.5365 12.7788 26.0151 12.6067 25.5181C12.3607 24.8083 12.088 24.1072 11.8119 23.4082C11.5576 22.764 11.2638 22.1346 11.0254 21.4846C10.8267 20.9425 10.6545 20.3868 10.5226 19.8248C10.3869 19.2465 10.2924 18.6562 10.3083 18.0562C10.3113 17.9467 10.3366 17.8374 10.3387 17.7278C10.3414 17.5906 10.4149 17.571 10.5329 17.5716C11.3749 17.5755 12.2168 17.5737 13.0588 17.5737C13.1163 17.5737 13.1738 17.5737 13.2352 17.5737C13.2301 17.5409 13.2322 17.5279 13.2268 17.5231C13.0335 17.3485 13.0576 17.2245 13.309 17.1315C13.529 17.0502 13.7551 16.9846 13.973 16.8979C14.2713 16.779 14.3195 16.6556 14.1864 16.363C13.9905 15.9322 13.7906 15.5032 13.5862 15.0767C13.2524 14.3804 12.9128 13.6865 12.5775 12.9909C12.5452 12.924 12.5257 12.8509 12.4998 12.7807C12.4372 12.6095 12.4661 12.462 12.5973 12.3283C12.9649 11.9541 13.3264 11.5739 13.6928 11.1985C13.8707 11.0161 14.057 10.8418 14.2343 10.6585C14.361 10.5276 14.3529 10.4403 14.1964 10.3466C13.8797 10.1576 13.557 9.97848 13.2367 9.79516C12.8851 9.59377 12.6012 9.31743 12.3691 8.98901C12.2999 8.89087 12.2632 8.90201 12.1918 8.98269C11.8782 9.3376 11.4781 9.5724 11.0488 9.75362C10.7701 9.87132 10.4823 10.0053 10.1879 10.0387C9.87273 10.0745 9.54491 10.0032 9.22312 9.97487C8.52503 9.91407 7.82725 9.85085 7.12917 9.79004C7.08673 9.78643 7.04308 9.79576 6.96391 9.80208C7.91816 12.2296 8.86339 14.6339 9.81162 17.0457C9.77761 17.055 9.75955 17.0635 9.74148 17.0644C9.02414 17.0936 8.31221 17.0752 7.60299 16.9322C6.6695 16.7441 5.79623 16.409 4.98074 15.9229C4.05117 15.369 3.25676 14.6604 2.58306 13.8124C2.07764 13.1763 1.66252 12.4878 1.33561 11.7458C1.08425 11.1751 0.889185 10.5857 0.7471 9.97608C0.533371 9.05554 0.475574 8.12476 0.508687 7.18526C0.535177 6.43148 0.650772 5.68825 0.860286 4.96639C1.31664 3.39382 2.08938 1.99916 3.25706 0.836598C3.29108 0.802582 3.3275 0.771276 3.38289 0.720703C3.44912 0.879946 3.50962 1.01962 3.56531 1.16111C3.92203 2.06539 4.27785 2.96998 4.63336 3.87486C4.90519 4.56632 5.17611 5.25778 5.44794 5.94924C5.58099 6.28729 5.71404 6.62535 5.85131 6.96159C5.86847 7.00344 5.90369 7.05461 5.94192 7.06786C6.2002 7.15696 6.45818 7.25088 6.72279 7.31711C7.08552 7.40802 7.45368 7.47876 7.82033 7.55341C8.1042 7.61121 8.39047 7.65696 8.67374 7.71657C9.02173 7.78972 9.34925 7.6979 9.67556 7.60128C10.1443 7.4625 10.6112 7.31741 11.0783 7.17382C11.1545 7.15034 11.2307 7.12475 11.3035 7.09314C11.436 7.03534 11.4375 6.97965 11.3439 6.87159C11.1316 6.62655 10.8481 6.52811 10.5464 6.4661C10.1674 6.38814 9.87363 6.19819 9.69844 5.84478C9.53227 5.50914 9.46364 5.15302 9.51331 4.78246C9.5422 4.56602 9.70115 4.42695 9.89922 4.38962C10.137 4.34507 10.3866 4.33333 10.6286 4.34687C10.9435 4.36433 11.0762 4.58739 11.162 4.86976C11.2451 5.14399 11.3622 5.4089 11.4796 5.67139C11.5898 5.91763 11.8092 6.00102 12.0642 6.02088C12.4486 6.05099 12.8466 6.06604 13.1789 6.27826C13.4706 6.4646 13.7292 6.70391 13.9971 6.92607C14.526 7.36497 15.0278 7.84059 15.585 8.23915C16.0028 8.53777 16.4767 8.76926 16.949 8.97757C17.5784 9.25512 17.9716 9.72773 18.2494 10.3331C18.6447 11.1943 19.0592 12.0465 19.6185 12.8175C20.0658 13.4343 20.6001 13.9704 21.1643 14.4788C21.9192 15.1595 22.6751 15.8389 23.428 16.5219C23.6303 16.7055 23.6432 16.7949 23.4951 17.0291C23.4054 17.1712 23.2907 17.2977 23.1859 17.4301C23.1592 17.4641 23.1285 17.4945 23.0713 17.558C23.1682 17.5647 23.2287 17.5722 23.2892 17.5722C24.863 17.5728 26.4367 17.5752 28.0102 17.5686C28.1523 17.568 28.226 17.614 28.2601 17.7411C28.3269 17.9915 28.4091 18.2396 28.4524 18.4939C28.506 18.8067 28.4244 19.1119 28.3248 19.4072C28.0855 20.1174 28.164 20.7835 28.6171 21.3829C28.9858 21.8712 29.3841 22.3374 29.7643 22.8173C30.0138 23.1322 30.255 23.454 30.4997 23.7727V24.1337L30.5 24.1343ZM14.122 17.5291C14.1226 17.5409 14.1235 17.5526 14.1241 17.5644C14.1813 17.5671 14.2382 17.5722 14.2954 17.5722C16.756 17.5728 19.2169 17.5731 21.6775 17.571C21.7389 17.571 21.8081 17.5556 21.8605 17.5249C21.9806 17.4545 22.0959 17.3744 22.207 17.2901C22.4635 17.0954 22.4665 17.0327 22.2239 16.8262C21.4198 16.1414 20.6031 15.471 19.8114 14.7723C19.0194 14.0737 18.2476 13.3518 17.4749 12.632C17.085 12.269 16.7154 11.884 16.3298 11.5158C16.1142 11.3099 15.9721 11.2883 15.7304 11.4662C15.2093 11.8497 14.7012 12.2503 14.1925 12.6504C14.0161 12.7892 13.927 12.9764 13.9872 13.2061C14.0389 13.4027 14.0877 13.6022 14.1636 13.7904C14.4191 14.4244 14.6862 15.0538 14.9492 15.6851C15.1007 16.0484 15.2566 16.4099 15.4038 16.7748C15.4875 16.9825 15.4526 17.0803 15.2515 17.1727C15.0847 17.2495 14.9098 17.3106 14.7343 17.3651C14.5326 17.4277 14.3264 17.4756 14.1223 17.5297L14.122 17.5291ZM6.12615 7.61783C6.13819 7.67563 6.1394 7.6955 6.14632 7.71296C6.32573 8.17172 6.50213 8.63169 6.69088 9.08654C6.71105 9.13501 6.80135 9.17805 6.86216 9.18257C7.63038 9.23976 8.3992 9.29184 9.16803 9.33971C9.45491 9.35777 9.75714 9.45048 10.0235 9.30147C10.2054 9.19973 10.3505 9.03085 10.507 8.88636C10.5753 8.82314 10.6313 8.74638 10.6927 8.67594C10.6843 8.6633 10.6759 8.65096 10.6674 8.63831C10.4841 8.65216 10.3011 8.66842 10.1175 8.67925C9.69603 8.70424 9.26707 8.72019 8.86519 8.58925C8.01841 8.3129 7.18306 8.00164 6.34349 7.70423C6.27998 7.68165 6.21796 7.65456 6.12615 7.61783Z" fill="black"/>
</svg>
