<svg width="10" height="7" viewBox="0 0 10 7" fill="none" xmlns="http://www.w3.org/2000/svg">
<path d="M5.4 6.34C5.29333 6.34 5.19333 6.31333 5.1 6.26C5.00667 6.20667 4.92 6.14 4.84 6.06L1.24 2.44C1.12 2.33333 1.03333 2.22 0.980001 2.1C0.926667 1.99333 0.920001 1.87333 0.96 1.74C1 1.62 1.10667 1.47333 1.28 1.3C1.44 1.14 1.58667 1.04 1.72 0.999999C1.85333 0.973333 1.97333 0.986666 2.08 1.04C2.18667 1.10667 2.3 1.19333 2.42 1.3L5.4 4.3L8.4 1.3C8.50667 1.19333 8.62 1.10667 8.74 1.04C8.84667 0.986667 8.96667 0.973333 9.1 1C9.22 1.04 9.36 1.14 9.52 1.3C9.69333 1.47333 9.8 1.62 9.84 1.74C9.88 1.87333 9.87333 1.99333 9.82 2.1C9.76667 2.22 9.68667 2.33333 9.58 2.44L5.96 6.06C5.88 6.14 5.79333 6.20667 5.7 6.26C5.60667 6.31333 5.50667 6.34 5.4 6.34Z" fill="black"/>
</svg>
